<svg width="12" height="6" viewBox="0 0 12 6" fill="none" xmlns="http://www.w3.org/2000/svg">
<path d="M6.46824 5.83709L11.8083 1.29221C11.9319 1.1871 12 1.04677 12 0.897152C12 0.74753 11.9319 0.607207 11.8083 0.50209L11.4151 0.167391C11.1589 -0.0503999 10.7425 -0.0503999 10.4867 0.167391L6.00249 3.98384L1.51326 0.163156C1.38965 0.0580383 1.22487 -4.70996e-07 1.04916 -4.78676e-07C0.873261 -4.86365e-07 0.708482 0.0580383 0.584775 0.163156L0.191706 0.497854C0.0680971 0.603055 -3.24905e-08 0.743295 -3.90307e-08 0.892917C-4.55709e-08 1.04254 0.0680971 1.18286 0.191706 1.28798L5.53664 5.83709C5.66064 5.94246 5.8262 6.00033 6.00219 6C6.17888 6.00033 6.34434 5.94246 6.46824 5.83709Z" fill="#6B6B6B"/>
</svg>
